# xmcd
#
# Track frame offsets:
#	150
#	11862
#	32914
#	50535
#	65707
#	81859
#	94477
#	107825
#	122374
#	143900
#
# Disc length: 2155 seconds
#
# Revision: 0
# Processed by: cddbd v1.5.2PL0 Copyright (c) Steve Scherf et al.
# Submitted via: audiograbber 1.83.01
#
DISCID=8d08690a
DTITLE=R&B Greats - Disc 1
DYEAR=2007
DGENRE=R&B
TTITLE0=Sam and Dave - Hold On! I'm Comin'
TTITLE1=Marvin Gaye - I Heard It Through The Grapevine (live)
TTITLE2=Harold Melvin's Blue Notes - If You Don't Know Me By Now
TTITLE3=Eddie Floyd - Knock On Wood
TTITLE4=The Chi-Lites - Have You Seen Her
TTITLE5=Teddy Pendergrass - Close The Door
TTITLE6=The Delphonics - La-La-Means I Love You
TTITLE7=Fontella Bass - Rescue Me
TTITLE8=Sister Sledge - We Are Family
TTITLE9=Al Jarreau - Lean On Me
EXTD=
EXTT0=
EXTT1=
EXTT2=
EXTT3=
EXTT4=
EXTT5=
EXTT6=
EXTT7=
EXTT8=
EXTT9=
PLAYORDER=
